<?xml version="1.0" encoding="iso-8859-1"?>
<!-- Generator: Adobe Illustrator 19.0.0, SVG Export Plug-In . SVG Version: 6.00 Build 0)  -->
<svg version="1.1" id="Capa_1" xmlns="http://www.w3.org/2000/svg" xmlns:xlink="http://www.w3.org/1999/xlink" x="0px" y="0px"
	 viewBox="0 0 512 512" style="enable-background:new 0 0 512 512;" xml:space="preserve">
<g>
	<g>
		<path d="M314.652,23.35c-31.01-31.01-86.294-31.01-117.305,0l-7.559,7.559H322.21L314.652,23.35z"/>
	</g>
</g>
<g>
	<g>
		<path d="M287.816,308.936c-16.992-16.993-46.64-16.993-63.632,0L25.721,507.398c5.867,2.807,12.352,4.51,19.279,4.51h422
			c6.927,0,13.412-1.703,19.279-4.51L287.816,308.936z"/>
	</g>
</g>
<g>
	<g>
		<path d="M0.555,232.674C0.319,234.551,0,236.409,0,238.33v228.578c0,6.927,1.703,13.413,4.51,19.279l125.279-125.279
			L0.555,232.674z"/>
	</g>
</g>
<g>
	<g>
		<path d="M511.447,232.672L382.211,360.908l125.279,125.28c2.807-5.867,4.51-12.353,4.51-19.279V238.33
			C512,236.409,511.683,234.549,511.447,232.672z"/>
	</g>
</g>
<g>
	<g>
		<polygon points="451,159.697 451,249.697 497,204.697 		"/>
	</g>
</g>
<g>
	<g>
		<path d="M376,60.908c-55.533,0-192.266,0-240,0c-24.814,0-45,20.186-45,45c0,63.59,0,106.959,0,173.789l60,60l51.973-51.972
			c29.238-29.238,76.816-29.238,106.055,0L361,339.697l60-60c0-65.955,0-110.727,0-173.789C421,81.094,400.814,60.908,376,60.908z
			 M166,150.908h60c8.291,0,15,6.709,15,15c0,8.291-6.709,15-15,15h-60c-8.291,0-15-6.709-15-15
			C151,157.617,157.709,150.908,166,150.908z M346,240.908H166c-8.291,0-15-6.709-15-15c0-8.291,6.709-15,15-15h180
			c8.291,0,15,6.709,15,15C361,234.199,354.291,240.908,346,240.908z"/>
	</g>
</g>
<g>
	<g>
		<polygon points="15,204.697 61,249.697 61,159.697 		"/>
	</g>
</g>
<g>
</g>
<g>
</g>
<g>
</g>
<g>
</g>
<g>
</g>
<g>
</g>
<g>
</g>
<g>
</g>
<g>
</g>
<g>
</g>
<g>
</g>
<g>
</g>
<g>
</g>
<g>
</g>
<g>
</g>
</svg>
